<mxfile host="Electron" agent="Mozilla/5.0 (Windows NT 10.0; Win64; x64) AppleWebKit/537.36 (KHTML, like Gecko) draw.io/24.7.8 Chrome/128.0.6613.36 Electron/32.0.1 Safari/537.36" version="24.7.8">
  <diagram name="Página-1" id="VsMF1zyaqfNJRazoi-Hn">
    <mxGraphModel dx="3695" dy="2841" grid="1" gridSize="10" guides="1" tooltips="1" connect="1" arrows="1" fold="1" page="1" pageScale="1" pageWidth="827" pageHeight="1169" math="0" shadow="0">
      <root>
        <mxCell id="0" />
        <mxCell id="1" parent="0" />
        <mxCell id="E3nTgvue2_oqYDqIntTC-2" value="DUEÑOS" style="whiteSpace=wrap;html=1;align=center;" parent="1" vertex="1">
          <mxGeometry x="-110" y="320" width="100" height="40" as="geometry" />
        </mxCell>
        <mxCell id="E3nTgvue2_oqYDqIntTC-3" value="PACIENTES" style="whiteSpace=wrap;html=1;align=center;" parent="1" vertex="1">
          <mxGeometry x="230" y="320" width="100" height="40" as="geometry" />
        </mxCell>
        <mxCell id="E3nTgvue2_oqYDqIntTC-4" value="CITAS" style="whiteSpace=wrap;html=1;align=center;" parent="1" vertex="1">
          <mxGeometry x="580" y="320" width="100" height="40" as="geometry" />
        </mxCell>
        <mxCell id="E3nTgvue2_oqYDqIntTC-5" value="RECETAS" style="whiteSpace=wrap;html=1;align=center;" parent="1" vertex="1">
          <mxGeometry x="480" y="560" width="100" height="40" as="geometry" />
        </mxCell>
        <mxCell id="E3nTgvue2_oqYDqIntTC-7" value="POSEEN" style="shape=rhombus;perimeter=rhombusPerimeter;whiteSpace=wrap;html=1;align=center;" parent="1" vertex="1">
          <mxGeometry x="40" y="310" width="120" height="60" as="geometry" />
        </mxCell>
        <mxCell id="E3nTgvue2_oqYDqIntTC-8" value="TIENEN" style="shape=rhombus;perimeter=rhombusPerimeter;whiteSpace=wrap;html=1;align=center;" parent="1" vertex="1">
          <mxGeometry x="400" y="310" width="120" height="60" as="geometry" />
        </mxCell>
        <mxCell id="E3nTgvue2_oqYDqIntTC-9" value="TIENEN" style="shape=rhombus;perimeter=rhombusPerimeter;whiteSpace=wrap;html=1;align=center;" parent="1" vertex="1">
          <mxGeometry x="470" y="430" width="120" height="60" as="geometry" />
        </mxCell>
        <mxCell id="E3nTgvue2_oqYDqIntTC-10" value="ATIENDEN" style="shape=rhombus;perimeter=rhombusPerimeter;whiteSpace=wrap;html=1;align=center;" parent="1" vertex="1">
          <mxGeometry x="700" y="430" width="120" height="60" as="geometry" />
        </mxCell>
        <mxCell id="E3nTgvue2_oqYDqIntTC-11" value="&lt;u&gt;ID&lt;/u&gt;" style="ellipse;whiteSpace=wrap;html=1;align=center;" parent="1" vertex="1">
          <mxGeometry x="827" y="500" width="100" height="40" as="geometry" />
        </mxCell>
        <mxCell id="E3nTgvue2_oqYDqIntTC-12" value="&lt;u&gt;ID&lt;/u&gt;" style="ellipse;whiteSpace=wrap;html=1;align=center;" parent="1" vertex="1">
          <mxGeometry x="-110" y="240" width="100" height="40" as="geometry" />
        </mxCell>
        <mxCell id="E3nTgvue2_oqYDqIntTC-13" value="&lt;u&gt;ID&lt;/u&gt;" style="ellipse;whiteSpace=wrap;html=1;align=center;" parent="1" vertex="1">
          <mxGeometry x="580" y="240" width="100" height="40" as="geometry" />
        </mxCell>
        <mxCell id="E3nTgvue2_oqYDqIntTC-14" value="&lt;u&gt;ID&lt;/u&gt;" style="ellipse;whiteSpace=wrap;html=1;align=center;" parent="1" vertex="1">
          <mxGeometry x="290" y="240" width="100" height="40" as="geometry" />
        </mxCell>
        <mxCell id="E3nTgvue2_oqYDqIntTC-15" value="&lt;u&gt;ID&lt;/u&gt;" style="ellipse;whiteSpace=wrap;html=1;align=center;" parent="1" vertex="1">
          <mxGeometry x="370" y="500" width="100" height="40" as="geometry" />
        </mxCell>
        <mxCell id="E3nTgvue2_oqYDqIntTC-24" value="APELLIDOS" style="ellipse;whiteSpace=wrap;html=1;align=center;" parent="1" vertex="1">
          <mxGeometry x="-230" y="310" width="100" height="40" as="geometry" />
        </mxCell>
        <mxCell id="E3nTgvue2_oqYDqIntTC-6" value="VETERINARIOS" style="whiteSpace=wrap;html=1;align=center;" parent="1" vertex="1">
          <mxGeometry x="710" y="560" width="100" height="40" as="geometry" />
        </mxCell>
        <mxCell id="E3nTgvue2_oqYDqIntTC-25" value="APELLIDOS" style="ellipse;whiteSpace=wrap;html=1;align=center;" parent="1" vertex="1">
          <mxGeometry x="827" y="590" width="100" height="40" as="geometry" />
        </mxCell>
        <mxCell id="E3nTgvue2_oqYDqIntTC-27" value="DIRECCION" style="ellipse;whiteSpace=wrap;html=1;align=center;" parent="1" vertex="1">
          <mxGeometry x="-220" y="360" width="100" height="40" as="geometry" />
        </mxCell>
        <mxCell id="E3nTgvue2_oqYDqIntTC-28" value="RAZA" style="ellipse;whiteSpace=wrap;html=1;align=center;" parent="1" vertex="1">
          <mxGeometry x="160" y="380" width="100" height="40" as="geometry" />
        </mxCell>
        <mxCell id="E3nTgvue2_oqYDqIntTC-29" value="TELEFONO" style="ellipse;whiteSpace=wrap;html=1;align=center;" parent="1" vertex="1">
          <mxGeometry x="-170" y="400" width="100" height="40" as="geometry" />
        </mxCell>
        <mxCell id="E3nTgvue2_oqYDqIntTC-30" value="EMAIL" style="ellipse;whiteSpace=wrap;html=1;align=center;" parent="1" vertex="1">
          <mxGeometry x="-60" y="400" width="100" height="40" as="geometry" />
        </mxCell>
        <mxCell id="E3nTgvue2_oqYDqIntTC-31" value="1:N" style="text;html=1;align=center;verticalAlign=middle;resizable=0;points=[];autosize=1;strokeColor=none;fillColor=none;" parent="1" vertex="1">
          <mxGeometry x="80" y="278" width="40" height="30" as="geometry" />
        </mxCell>
        <mxCell id="E3nTgvue2_oqYDqIntTC-32" value="NOMBRE" style="ellipse;whiteSpace=wrap;html=1;align=center;" parent="1" vertex="1">
          <mxGeometry x="-220" y="260" width="100" height="40" as="geometry" />
        </mxCell>
        <mxCell id="E3nTgvue2_oqYDqIntTC-33" value="NOMBRE" style="ellipse;whiteSpace=wrap;html=1;align=center;" parent="1" vertex="1">
          <mxGeometry x="180" y="238" width="100" height="40" as="geometry" />
        </mxCell>
        <mxCell id="E3nTgvue2_oqYDqIntTC-34" value="NOMBRE" style="ellipse;whiteSpace=wrap;html=1;align=center;" parent="1" vertex="1">
          <mxGeometry x="840" y="545" width="100" height="40" as="geometry" />
        </mxCell>
        <mxCell id="E3nTgvue2_oqYDqIntTC-35" value="EDAD" style="ellipse;whiteSpace=wrap;html=1;align=center;" parent="1" vertex="1">
          <mxGeometry x="230" y="430" width="100" height="40" as="geometry" />
        </mxCell>
        <mxCell id="E3nTgvue2_oqYDqIntTC-36" value="ESPECIE" style="ellipse;whiteSpace=wrap;html=1;align=center;" parent="1" vertex="1">
          <mxGeometry x="300" y="390" width="100" height="40" as="geometry" />
        </mxCell>
        <mxCell id="E3nTgvue2_oqYDqIntTC-37" value="1:N" style="text;html=1;align=center;verticalAlign=middle;resizable=0;points=[];autosize=1;strokeColor=none;fillColor=none;" parent="1" vertex="1">
          <mxGeometry x="440" y="278" width="40" height="30" as="geometry" />
        </mxCell>
        <mxCell id="E3nTgvue2_oqYDqIntTC-38" value="1:N" style="text;html=1;align=center;verticalAlign=middle;resizable=0;points=[];autosize=1;strokeColor=none;fillColor=none;" parent="1" vertex="1">
          <mxGeometry x="510" y="388" width="40" height="30" as="geometry" />
        </mxCell>
        <mxCell id="E3nTgvue2_oqYDqIntTC-39" value="1:1" style="text;html=1;align=center;verticalAlign=middle;resizable=0;points=[];autosize=1;strokeColor=none;fillColor=none;" parent="1" vertex="1">
          <mxGeometry x="740" y="388" width="40" height="30" as="geometry" />
        </mxCell>
        <mxCell id="E3nTgvue2_oqYDqIntTC-40" value="FECHA_Y_HORA" style="ellipse;whiteSpace=wrap;html=1;align=center;" parent="1" vertex="1">
          <mxGeometry x="690" y="260" width="100" height="40" as="geometry" />
        </mxCell>
        <mxCell id="E3nTgvue2_oqYDqIntTC-41" value="MOTIVO" style="ellipse;whiteSpace=wrap;html=1;align=center;" parent="1" vertex="1">
          <mxGeometry x="740" y="320" width="100" height="40" as="geometry" />
        </mxCell>
        <mxCell id="E3nTgvue2_oqYDqIntTC-42" value="DOSIS" style="ellipse;whiteSpace=wrap;html=1;align=center;" parent="1" vertex="1">
          <mxGeometry x="340" y="545" width="100" height="40" as="geometry" />
        </mxCell>
        <mxCell id="E3nTgvue2_oqYDqIntTC-43" value="MEDICAMENTO" style="ellipse;whiteSpace=wrap;html=1;align=center;" parent="1" vertex="1">
          <mxGeometry x="364" y="590" width="100" height="40" as="geometry" />
        </mxCell>
        <mxCell id="E3nTgvue2_oqYDqIntTC-44" value="FECHA_EMI" style="ellipse;whiteSpace=wrap;html=1;align=center;" parent="1" vertex="1">
          <mxGeometry x="440" y="630" width="100" height="40" as="geometry" />
        </mxCell>
        <mxCell id="E3nTgvue2_oqYDqIntTC-45" value="FRECUENCIA" style="ellipse;whiteSpace=wrap;html=1;align=center;" parent="1" vertex="1">
          <mxGeometry x="540" y="620" width="100" height="40" as="geometry" />
        </mxCell>
        <mxCell id="E3nTgvue2_oqYDqIntTC-46" value="ESPECIALIZACION" style="ellipse;whiteSpace=wrap;html=1;align=center;" parent="1" vertex="1">
          <mxGeometry x="770" y="630" width="100" height="40" as="geometry" />
        </mxCell>
        <mxCell id="E3nTgvue2_oqYDqIntTC-47" value="AÑOS_EXP" style="ellipse;whiteSpace=wrap;html=1;align=center;" parent="1" vertex="1">
          <mxGeometry x="660" y="620" width="100" height="40" as="geometry" />
        </mxCell>
        <mxCell id="E3nTgvue2_oqYDqIntTC-48" value="" style="endArrow=none;html=1;rounded=0;exitX=0.5;exitY=1;exitDx=0;exitDy=0;entryX=0.5;entryY=0;entryDx=0;entryDy=0;" parent="1" source="E3nTgvue2_oqYDqIntTC-12" target="E3nTgvue2_oqYDqIntTC-2" edge="1">
          <mxGeometry relative="1" as="geometry">
            <mxPoint x="230" y="300" as="sourcePoint" />
            <mxPoint x="390" y="300" as="targetPoint" />
          </mxGeometry>
        </mxCell>
        <mxCell id="E3nTgvue2_oqYDqIntTC-49" value="" style="endArrow=none;html=1;rounded=0;exitX=1;exitY=1;exitDx=0;exitDy=0;entryX=0.25;entryY=0;entryDx=0;entryDy=0;" parent="1" source="E3nTgvue2_oqYDqIntTC-32" target="E3nTgvue2_oqYDqIntTC-2" edge="1">
          <mxGeometry relative="1" as="geometry">
            <mxPoint x="-50" y="290" as="sourcePoint" />
            <mxPoint x="-50" y="330" as="targetPoint" />
          </mxGeometry>
        </mxCell>
        <mxCell id="E3nTgvue2_oqYDqIntTC-50" value="" style="endArrow=none;html=1;rounded=0;exitX=0.75;exitY=1;exitDx=0;exitDy=0;entryX=0.5;entryY=0;entryDx=0;entryDy=0;" parent="1" source="E3nTgvue2_oqYDqIntTC-2" target="E3nTgvue2_oqYDqIntTC-30" edge="1">
          <mxGeometry relative="1" as="geometry">
            <mxPoint x="-40" y="300" as="sourcePoint" />
            <mxPoint x="-40" y="340" as="targetPoint" />
          </mxGeometry>
        </mxCell>
        <mxCell id="E3nTgvue2_oqYDqIntTC-51" value="" style="endArrow=none;html=1;rounded=0;exitX=1;exitY=0.5;exitDx=0;exitDy=0;entryX=0;entryY=0.5;entryDx=0;entryDy=0;" parent="1" source="E3nTgvue2_oqYDqIntTC-24" target="E3nTgvue2_oqYDqIntTC-2" edge="1">
          <mxGeometry relative="1" as="geometry">
            <mxPoint x="-125" y="304" as="sourcePoint" />
            <mxPoint x="-75" y="330" as="targetPoint" />
          </mxGeometry>
        </mxCell>
        <mxCell id="E3nTgvue2_oqYDqIntTC-52" value="" style="endArrow=none;html=1;rounded=0;exitX=0.5;exitY=0;exitDx=0;exitDy=0;entryX=0.5;entryY=1;entryDx=0;entryDy=0;" parent="1" source="E3nTgvue2_oqYDqIntTC-29" target="E3nTgvue2_oqYDqIntTC-2" edge="1">
          <mxGeometry relative="1" as="geometry">
            <mxPoint x="-115" y="314" as="sourcePoint" />
            <mxPoint x="-65" y="340" as="targetPoint" />
          </mxGeometry>
        </mxCell>
        <mxCell id="E3nTgvue2_oqYDqIntTC-53" value="" style="endArrow=none;html=1;rounded=0;exitX=0;exitY=1;exitDx=0;exitDy=0;entryX=1;entryY=0;entryDx=0;entryDy=0;" parent="1" source="E3nTgvue2_oqYDqIntTC-2" target="E3nTgvue2_oqYDqIntTC-27" edge="1">
          <mxGeometry relative="1" as="geometry">
            <mxPoint x="-115" y="314" as="sourcePoint" />
            <mxPoint x="-65" y="340" as="targetPoint" />
          </mxGeometry>
        </mxCell>
        <mxCell id="E3nTgvue2_oqYDqIntTC-54" value="" style="endArrow=none;html=1;rounded=0;exitX=0;exitY=0.5;exitDx=0;exitDy=0;entryX=1;entryY=0.5;entryDx=0;entryDy=0;" parent="1" source="E3nTgvue2_oqYDqIntTC-7" target="E3nTgvue2_oqYDqIntTC-2" edge="1">
          <mxGeometry relative="1" as="geometry">
            <mxPoint x="-105" y="324" as="sourcePoint" />
            <mxPoint x="-55" y="350" as="targetPoint" />
          </mxGeometry>
        </mxCell>
        <mxCell id="E3nTgvue2_oqYDqIntTC-55" value="" style="endArrow=none;html=1;rounded=0;exitX=0;exitY=0.5;exitDx=0;exitDy=0;entryX=1;entryY=0.5;entryDx=0;entryDy=0;" parent="1" source="E3nTgvue2_oqYDqIntTC-3" target="E3nTgvue2_oqYDqIntTC-7" edge="1">
          <mxGeometry relative="1" as="geometry">
            <mxPoint x="50" y="350" as="sourcePoint" />
            <mxPoint y="350" as="targetPoint" />
          </mxGeometry>
        </mxCell>
        <mxCell id="E3nTgvue2_oqYDqIntTC-56" value="" style="endArrow=none;html=1;rounded=0;exitX=0.25;exitY=1;exitDx=0;exitDy=0;entryX=0.5;entryY=0;entryDx=0;entryDy=0;" parent="1" source="E3nTgvue2_oqYDqIntTC-3" target="E3nTgvue2_oqYDqIntTC-28" edge="1">
          <mxGeometry relative="1" as="geometry">
            <mxPoint x="240" y="350" as="sourcePoint" />
            <mxPoint x="170" y="350" as="targetPoint" />
          </mxGeometry>
        </mxCell>
        <mxCell id="E3nTgvue2_oqYDqIntTC-57" value="" style="endArrow=none;html=1;rounded=0;exitX=0.25;exitY=0;exitDx=0;exitDy=0;entryX=0.5;entryY=1;entryDx=0;entryDy=0;" parent="1" source="E3nTgvue2_oqYDqIntTC-3" target="E3nTgvue2_oqYDqIntTC-33" edge="1">
          <mxGeometry relative="1" as="geometry">
            <mxPoint x="265" y="370" as="sourcePoint" />
            <mxPoint x="220" y="390" as="targetPoint" />
          </mxGeometry>
        </mxCell>
        <mxCell id="E3nTgvue2_oqYDqIntTC-58" value="" style="endArrow=none;html=1;rounded=0;exitX=0.5;exitY=1;exitDx=0;exitDy=0;entryX=0.5;entryY=0;entryDx=0;entryDy=0;" parent="1" source="E3nTgvue2_oqYDqIntTC-3" target="E3nTgvue2_oqYDqIntTC-35" edge="1">
          <mxGeometry relative="1" as="geometry">
            <mxPoint x="275" y="380" as="sourcePoint" />
            <mxPoint x="230" y="400" as="targetPoint" />
          </mxGeometry>
        </mxCell>
        <mxCell id="E3nTgvue2_oqYDqIntTC-59" value="" style="endArrow=none;html=1;rounded=0;exitX=0.75;exitY=1;exitDx=0;exitDy=0;entryX=0.5;entryY=0;entryDx=0;entryDy=0;" parent="1" source="E3nTgvue2_oqYDqIntTC-3" target="E3nTgvue2_oqYDqIntTC-36" edge="1">
          <mxGeometry relative="1" as="geometry">
            <mxPoint x="285" y="390" as="sourcePoint" />
            <mxPoint x="240" y="410" as="targetPoint" />
          </mxGeometry>
        </mxCell>
        <mxCell id="E3nTgvue2_oqYDqIntTC-61" value="" style="endArrow=none;html=1;rounded=0;exitX=0.5;exitY=1;exitDx=0;exitDy=0;entryX=0.75;entryY=0;entryDx=0;entryDy=0;" parent="1" source="E3nTgvue2_oqYDqIntTC-14" target="E3nTgvue2_oqYDqIntTC-3" edge="1">
          <mxGeometry relative="1" as="geometry">
            <mxPoint x="275" y="380" as="sourcePoint" />
            <mxPoint x="230" y="400" as="targetPoint" />
          </mxGeometry>
        </mxCell>
        <mxCell id="E3nTgvue2_oqYDqIntTC-63" value="" style="endArrow=none;html=1;rounded=0;exitX=0;exitY=0.5;exitDx=0;exitDy=0;entryX=1;entryY=0.5;entryDx=0;entryDy=0;" parent="1" source="E3nTgvue2_oqYDqIntTC-8" target="E3nTgvue2_oqYDqIntTC-3" edge="1">
          <mxGeometry relative="1" as="geometry">
            <mxPoint x="350" y="290" as="sourcePoint" />
            <mxPoint x="315" y="330" as="targetPoint" />
          </mxGeometry>
        </mxCell>
        <mxCell id="E3nTgvue2_oqYDqIntTC-64" value="" style="endArrow=none;html=1;rounded=0;exitX=0.5;exitY=0;exitDx=0;exitDy=0;entryX=0.25;entryY=1;entryDx=0;entryDy=0;" parent="1" source="E3nTgvue2_oqYDqIntTC-9" target="E3nTgvue2_oqYDqIntTC-4" edge="1">
          <mxGeometry relative="1" as="geometry">
            <mxPoint x="680" y="390" as="sourcePoint" />
            <mxPoint x="610" y="390" as="targetPoint" />
          </mxGeometry>
        </mxCell>
        <mxCell id="E3nTgvue2_oqYDqIntTC-65" value="" style="endArrow=none;html=1;rounded=0;exitX=0;exitY=0.5;exitDx=0;exitDy=0;entryX=1;entryY=0.5;entryDx=0;entryDy=0;" parent="1" source="E3nTgvue2_oqYDqIntTC-41" target="E3nTgvue2_oqYDqIntTC-4" edge="1">
          <mxGeometry relative="1" as="geometry">
            <mxPoint x="420" y="360" as="sourcePoint" />
            <mxPoint x="350" y="360" as="targetPoint" />
          </mxGeometry>
        </mxCell>
        <mxCell id="E3nTgvue2_oqYDqIntTC-66" value="" style="endArrow=none;html=1;rounded=0;exitX=0;exitY=1;exitDx=0;exitDy=0;entryX=0.75;entryY=0;entryDx=0;entryDy=0;" parent="1" source="E3nTgvue2_oqYDqIntTC-40" target="E3nTgvue2_oqYDqIntTC-4" edge="1">
          <mxGeometry relative="1" as="geometry">
            <mxPoint x="430" y="370" as="sourcePoint" />
            <mxPoint x="360" y="370" as="targetPoint" />
          </mxGeometry>
        </mxCell>
        <mxCell id="E3nTgvue2_oqYDqIntTC-67" value="" style="endArrow=none;html=1;rounded=0;exitX=0.5;exitY=1;exitDx=0;exitDy=0;entryX=0.5;entryY=0;entryDx=0;entryDy=0;" parent="1" source="E3nTgvue2_oqYDqIntTC-13" target="E3nTgvue2_oqYDqIntTC-4" edge="1">
          <mxGeometry relative="1" as="geometry">
            <mxPoint x="440" y="380" as="sourcePoint" />
            <mxPoint x="370" y="380" as="targetPoint" />
          </mxGeometry>
        </mxCell>
        <mxCell id="E3nTgvue2_oqYDqIntTC-68" value="" style="endArrow=none;html=1;rounded=0;exitX=1;exitY=0.5;exitDx=0;exitDy=0;entryX=0;entryY=0.5;entryDx=0;entryDy=0;" parent="1" source="E3nTgvue2_oqYDqIntTC-8" target="E3nTgvue2_oqYDqIntTC-4" edge="1">
          <mxGeometry relative="1" as="geometry">
            <mxPoint x="450" y="390" as="sourcePoint" />
            <mxPoint x="430" y="390" as="targetPoint" />
          </mxGeometry>
        </mxCell>
        <mxCell id="E3nTgvue2_oqYDqIntTC-69" value="" style="endArrow=none;html=1;rounded=0;exitX=0.5;exitY=0;exitDx=0;exitDy=0;entryX=0.75;entryY=1;entryDx=0;entryDy=0;" parent="1" source="E3nTgvue2_oqYDqIntTC-10" target="E3nTgvue2_oqYDqIntTC-4" edge="1">
          <mxGeometry relative="1" as="geometry">
            <mxPoint x="690" y="400" as="sourcePoint" />
            <mxPoint x="620" y="400" as="targetPoint" />
          </mxGeometry>
        </mxCell>
        <mxCell id="E3nTgvue2_oqYDqIntTC-70" value="" style="endArrow=none;html=1;rounded=0;exitX=0.5;exitY=0;exitDx=0;exitDy=0;entryX=0.5;entryY=1;entryDx=0;entryDy=0;" parent="1" source="E3nTgvue2_oqYDqIntTC-5" target="E3nTgvue2_oqYDqIntTC-9" edge="1">
          <mxGeometry relative="1" as="geometry">
            <mxPoint x="700" y="410" as="sourcePoint" />
            <mxPoint x="630" y="410" as="targetPoint" />
          </mxGeometry>
        </mxCell>
        <mxCell id="E3nTgvue2_oqYDqIntTC-71" value="" style="endArrow=none;html=1;rounded=0;exitX=0.5;exitY=0;exitDx=0;exitDy=0;entryX=0.5;entryY=1;entryDx=0;entryDy=0;" parent="1" source="E3nTgvue2_oqYDqIntTC-6" target="E3nTgvue2_oqYDqIntTC-10" edge="1">
          <mxGeometry relative="1" as="geometry">
            <mxPoint x="710" y="420" as="sourcePoint" />
            <mxPoint x="640" y="420" as="targetPoint" />
          </mxGeometry>
        </mxCell>
        <mxCell id="E3nTgvue2_oqYDqIntTC-72" value="" style="endArrow=none;html=1;rounded=0;exitX=0;exitY=1;exitDx=0;exitDy=0;entryX=1;entryY=0.5;entryDx=0;entryDy=0;" parent="1" source="E3nTgvue2_oqYDqIntTC-5" target="E3nTgvue2_oqYDqIntTC-43" edge="1">
          <mxGeometry relative="1" as="geometry">
            <mxPoint x="540" y="570" as="sourcePoint" />
            <mxPoint x="540" y="500" as="targetPoint" />
          </mxGeometry>
        </mxCell>
        <mxCell id="E3nTgvue2_oqYDqIntTC-73" value="" style="endArrow=none;html=1;rounded=0;exitX=0.5;exitY=0;exitDx=0;exitDy=0;entryX=0.5;entryY=1;entryDx=0;entryDy=0;" parent="1" source="E3nTgvue2_oqYDqIntTC-44" target="E3nTgvue2_oqYDqIntTC-5" edge="1">
          <mxGeometry relative="1" as="geometry">
            <mxPoint x="550" y="580" as="sourcePoint" />
            <mxPoint x="550" y="510" as="targetPoint" />
          </mxGeometry>
        </mxCell>
        <mxCell id="E3nTgvue2_oqYDqIntTC-74" value="" style="endArrow=none;html=1;rounded=0;exitX=0.5;exitY=0;exitDx=0;exitDy=0;entryX=0.75;entryY=1;entryDx=0;entryDy=0;" parent="1" source="E3nTgvue2_oqYDqIntTC-45" target="E3nTgvue2_oqYDqIntTC-5" edge="1">
          <mxGeometry relative="1" as="geometry">
            <mxPoint x="560" y="590" as="sourcePoint" />
            <mxPoint x="560" y="520" as="targetPoint" />
          </mxGeometry>
        </mxCell>
        <mxCell id="E3nTgvue2_oqYDqIntTC-75" value="" style="endArrow=none;html=1;rounded=0;exitX=0;exitY=0.5;exitDx=0;exitDy=0;entryX=1;entryY=0.5;entryDx=0;entryDy=0;" parent="1" source="E3nTgvue2_oqYDqIntTC-5" target="E3nTgvue2_oqYDqIntTC-42" edge="1">
          <mxGeometry relative="1" as="geometry">
            <mxPoint x="570" y="600" as="sourcePoint" />
            <mxPoint x="570" y="530" as="targetPoint" />
          </mxGeometry>
        </mxCell>
        <mxCell id="E3nTgvue2_oqYDqIntTC-76" value="" style="endArrow=none;html=1;rounded=0;exitX=0.25;exitY=0;exitDx=0;exitDy=0;entryX=1;entryY=1;entryDx=0;entryDy=0;" parent="1" source="E3nTgvue2_oqYDqIntTC-5" target="E3nTgvue2_oqYDqIntTC-15" edge="1">
          <mxGeometry relative="1" as="geometry">
            <mxPoint x="580" y="610" as="sourcePoint" />
            <mxPoint x="580" y="540" as="targetPoint" />
          </mxGeometry>
        </mxCell>
        <mxCell id="E3nTgvue2_oqYDqIntTC-77" value="" style="endArrow=none;html=1;rounded=0;exitX=0.75;exitY=1;exitDx=0;exitDy=0;entryX=0.5;entryY=0;entryDx=0;entryDy=0;" parent="1" source="E3nTgvue2_oqYDqIntTC-6" target="E3nTgvue2_oqYDqIntTC-46" edge="1">
          <mxGeometry relative="1" as="geometry">
            <mxPoint x="590" y="620" as="sourcePoint" />
            <mxPoint x="590" y="550" as="targetPoint" />
          </mxGeometry>
        </mxCell>
        <mxCell id="E3nTgvue2_oqYDqIntTC-78" value="" style="endArrow=none;html=1;rounded=0;exitX=1;exitY=1;exitDx=0;exitDy=0;entryX=0;entryY=0.5;entryDx=0;entryDy=0;" parent="1" source="E3nTgvue2_oqYDqIntTC-6" target="E3nTgvue2_oqYDqIntTC-25" edge="1">
          <mxGeometry relative="1" as="geometry">
            <mxPoint x="680" y="600" as="sourcePoint" />
            <mxPoint x="680" y="530" as="targetPoint" />
          </mxGeometry>
        </mxCell>
        <mxCell id="E3nTgvue2_oqYDqIntTC-79" value="" style="endArrow=none;html=1;rounded=0;exitX=1;exitY=0.25;exitDx=0;exitDy=0;entryX=0;entryY=0.5;entryDx=0;entryDy=0;" parent="1" source="E3nTgvue2_oqYDqIntTC-6" target="E3nTgvue2_oqYDqIntTC-34" edge="1">
          <mxGeometry relative="1" as="geometry">
            <mxPoint x="610" y="640" as="sourcePoint" />
            <mxPoint x="610" y="570" as="targetPoint" />
          </mxGeometry>
        </mxCell>
        <mxCell id="E3nTgvue2_oqYDqIntTC-80" value="" style="endArrow=none;html=1;rounded=0;exitX=0.75;exitY=0;exitDx=0;exitDy=0;entryX=0;entryY=1;entryDx=0;entryDy=0;" parent="1" source="E3nTgvue2_oqYDqIntTC-6" target="E3nTgvue2_oqYDqIntTC-11" edge="1">
          <mxGeometry relative="1" as="geometry">
            <mxPoint x="620" y="650" as="sourcePoint" />
            <mxPoint x="620" y="580" as="targetPoint" />
          </mxGeometry>
        </mxCell>
        <mxCell id="E3nTgvue2_oqYDqIntTC-81" value="" style="endArrow=none;html=1;rounded=0;exitX=0.5;exitY=0;exitDx=0;exitDy=0;entryX=0.25;entryY=1;entryDx=0;entryDy=0;" parent="1" source="E3nTgvue2_oqYDqIntTC-47" target="E3nTgvue2_oqYDqIntTC-6" edge="1">
          <mxGeometry relative="1" as="geometry">
            <mxPoint x="630" y="660" as="sourcePoint" />
            <mxPoint x="630" y="590" as="targetPoint" />
          </mxGeometry>
        </mxCell>
        <mxCell id="E3nTgvue2_oqYDqIntTC-82" value="VETERINARIOS" style="swimlane;childLayout=stackLayout;horizontal=1;startSize=50;horizontalStack=0;rounded=1;fontSize=14;fontStyle=0;strokeWidth=2;resizeParent=0;resizeLast=1;shadow=0;dashed=0;align=center;arcSize=4;whiteSpace=wrap;html=1;" parent="1" vertex="1">
          <mxGeometry x="770" y="60" width="180" height="140" as="geometry" />
        </mxCell>
        <mxCell id="E3nTgvue2_oqYDqIntTC-83" value="&lt;u&gt;ID &lt;/u&gt;(numero) PK NN AI&lt;div&gt;&lt;div&gt;NOMBRE (texto) NN&lt;/div&gt;&lt;div&gt;APELLIDO (texto)&lt;/div&gt;&lt;/div&gt;&lt;div&gt;ESPECIALIZACION (texto) NN&lt;/div&gt;&lt;div&gt;AÑOS_EXP (numero) NN&lt;/div&gt;" style="align=left;strokeColor=none;fillColor=none;spacingLeft=4;fontSize=12;verticalAlign=top;resizable=0;rotatable=0;part=1;html=1;" parent="E3nTgvue2_oqYDqIntTC-82" vertex="1">
          <mxGeometry y="50" width="180" height="90" as="geometry" />
        </mxCell>
        <mxCell id="E3nTgvue2_oqYDqIntTC-84" value="RECETAS" style="swimlane;childLayout=stackLayout;horizontal=1;startSize=50;horizontalStack=0;rounded=1;fontSize=14;fontStyle=0;strokeWidth=2;resizeParent=0;resizeLast=1;shadow=0;dashed=0;align=center;arcSize=4;whiteSpace=wrap;html=1;" parent="1" vertex="1">
          <mxGeometry x="770" y="-250" width="180" height="150" as="geometry" />
        </mxCell>
        <mxCell id="E3nTgvue2_oqYDqIntTC-85" value="&lt;u style=&quot;&quot;&gt;ID &lt;/u&gt;(numero) PK NN AI&lt;div&gt;FECHA_EMISION&amp;nbsp; (fecha) NN&lt;/div&gt;&lt;div&gt;MEDICAMENTO (texto) NN&lt;/div&gt;&lt;div&gt;DOSIS (texto) NN&lt;/div&gt;&lt;div&gt;FRECUENCIA (texto) NN&lt;/div&gt;&lt;div&gt;&lt;u style=&quot;&quot;&gt;ID_CITA &lt;/u&gt;(numero) FK&lt;/div&gt;" style="align=left;strokeColor=none;fillColor=none;spacingLeft=4;fontSize=12;verticalAlign=top;resizable=0;rotatable=0;part=1;html=1;" parent="E3nTgvue2_oqYDqIntTC-84" vertex="1">
          <mxGeometry y="50" width="180" height="100" as="geometry" />
        </mxCell>
        <mxCell id="E3nTgvue2_oqYDqIntTC-86" value="CITAS" style="swimlane;childLayout=stackLayout;horizontal=1;startSize=50;horizontalStack=0;rounded=1;fontSize=14;fontStyle=0;strokeWidth=2;resizeParent=0;resizeLast=1;shadow=0;dashed=0;align=center;arcSize=4;whiteSpace=wrap;html=1;" parent="1" vertex="1">
          <mxGeometry x="480" y="-100" width="180" height="140" as="geometry" />
        </mxCell>
        <mxCell id="E3nTgvue2_oqYDqIntTC-87" value="&lt;u style=&quot;&quot;&gt;ID &lt;/u&gt;(numero) PK NN AI&lt;div&gt;FECHA_Y_HORA (fecha) NN&lt;br&gt;&lt;div&gt;MOTIVO (texto) NN&lt;/div&gt;&lt;/div&gt;&lt;div&gt;ID_PACIENTE (numero) FK&lt;/div&gt;&lt;div&gt;&lt;u style=&quot;&quot;&gt;ID_VETERINARIO &lt;/u&gt;(numero)&lt;/div&gt;" style="align=left;strokeColor=none;fillColor=none;spacingLeft=4;fontSize=12;verticalAlign=top;resizable=0;rotatable=0;part=1;html=1;" parent="E3nTgvue2_oqYDqIntTC-86" vertex="1">
          <mxGeometry y="50" width="180" height="90" as="geometry" />
        </mxCell>
        <mxCell id="E3nTgvue2_oqYDqIntTC-88" value="PACIENTES" style="swimlane;childLayout=stackLayout;horizontal=1;startSize=50;horizontalStack=0;rounded=1;fontSize=14;fontStyle=0;strokeWidth=2;resizeParent=0;resizeLast=1;shadow=0;dashed=0;align=center;arcSize=4;whiteSpace=wrap;html=1;" parent="1" vertex="1">
          <mxGeometry x="140" y="-100" width="160" height="150" as="geometry" />
        </mxCell>
        <mxCell id="E3nTgvue2_oqYDqIntTC-89" value="&lt;u style=&quot;&quot;&gt;ID &lt;/u&gt;(numero) PK NN AI&lt;div&gt;NOMBRE (texto) NN&lt;br&gt;&lt;/div&gt;&lt;div&gt;ESPECIE&amp;nbsp;&lt;span style=&quot;background-color: initial;&quot;&gt;(texto) NN&lt;/span&gt;&lt;/div&gt;&lt;div&gt;RAZA&lt;span style=&quot;background-color: initial;&quot;&gt;(texto) NN&lt;/span&gt;&lt;/div&gt;&lt;div&gt;EDAD (numero) NN&lt;/div&gt;&lt;div&gt;&lt;u style=&quot;&quot;&gt;ID_DUEÑO &lt;/u&gt;(numero) FK&lt;/div&gt;" style="align=left;strokeColor=none;fillColor=none;spacingLeft=4;fontSize=12;verticalAlign=top;resizable=0;rotatable=0;part=1;html=1;" parent="E3nTgvue2_oqYDqIntTC-88" vertex="1">
          <mxGeometry y="50" width="160" height="100" as="geometry" />
        </mxCell>
        <mxCell id="E3nTgvue2_oqYDqIntTC-90" value="DUEÑOS" style="swimlane;childLayout=stackLayout;horizontal=1;startSize=50;horizontalStack=0;rounded=1;fontSize=14;fontStyle=0;strokeWidth=2;resizeParent=0;resizeLast=1;shadow=0;dashed=0;align=center;arcSize=4;whiteSpace=wrap;html=1;" parent="1" vertex="1">
          <mxGeometry x="-220" y="-100" width="160" height="150" as="geometry" />
        </mxCell>
        <mxCell id="E3nTgvue2_oqYDqIntTC-91" value="&lt;u&gt;ID &lt;/u&gt;(numero) PK NN AI&lt;div&gt;NOMBRE (texto) NN&lt;/div&gt;&lt;div&gt;APELLIDO (texto)&lt;/div&gt;&lt;div&gt;DIRECCION (texto) NN&lt;/div&gt;&lt;div&gt;EMAIL (texto) NN ALT U&lt;/div&gt;&lt;div&gt;TELEFONO (texto)&lt;/div&gt;" style="align=left;strokeColor=none;fillColor=none;spacingLeft=4;fontSize=12;verticalAlign=top;resizable=0;rotatable=0;part=1;html=1;" parent="E3nTgvue2_oqYDqIntTC-90" vertex="1">
          <mxGeometry y="50" width="160" height="100" as="geometry" />
        </mxCell>
        <mxCell id="E3nTgvue2_oqYDqIntTC-93" value="" style="endArrow=none;html=1;rounded=0;exitX=0.994;exitY=0.13;exitDx=0;exitDy=0;entryX=-0.012;entryY=0.88;entryDx=0;entryDy=0;entryPerimeter=0;exitPerimeter=0;" parent="1" source="E3nTgvue2_oqYDqIntTC-91" target="E3nTgvue2_oqYDqIntTC-89" edge="1">
          <mxGeometry relative="1" as="geometry">
            <mxPoint x="-20" y="-25.5" as="sourcePoint" />
            <mxPoint x="140" y="-25.5" as="targetPoint" />
          </mxGeometry>
        </mxCell>
        <mxCell id="E3nTgvue2_oqYDqIntTC-94" value="1:N" style="text;html=1;align=center;verticalAlign=middle;resizable=0;points=[];autosize=1;strokeColor=none;fillColor=none;" parent="1" vertex="1">
          <mxGeometry x="15" y="-40" width="40" height="30" as="geometry" />
        </mxCell>
        <mxCell id="E3nTgvue2_oqYDqIntTC-97" value="" style="endArrow=none;html=1;rounded=0;exitX=0.994;exitY=0.08;exitDx=0;exitDy=0;exitPerimeter=0;entryX=0;entryY=0.75;entryDx=0;entryDy=0;" parent="1" source="E3nTgvue2_oqYDqIntTC-89" target="E3nTgvue2_oqYDqIntTC-86" edge="1">
          <mxGeometry relative="1" as="geometry">
            <mxPoint x="320" y="-30.5" as="sourcePoint" />
            <mxPoint x="480" y="-30.5" as="targetPoint" />
          </mxGeometry>
        </mxCell>
        <mxCell id="E3nTgvue2_oqYDqIntTC-98" value="1:N" style="text;html=1;align=center;verticalAlign=middle;resizable=0;points=[];autosize=1;strokeColor=none;fillColor=none;" parent="1" vertex="1">
          <mxGeometry x="380" y="-52" width="40" height="30" as="geometry" />
        </mxCell>
        <mxCell id="E3nTgvue2_oqYDqIntTC-99" value="" style="endArrow=none;html=1;rounded=0;exitX=1;exitY=0.144;exitDx=0;exitDy=0;exitPerimeter=0;entryX=0.013;entryY=0.86;entryDx=0;entryDy=0;entryPerimeter=0;" parent="1" source="E3nTgvue2_oqYDqIntTC-87" target="E3nTgvue2_oqYDqIntTC-85" edge="1">
          <mxGeometry relative="1" as="geometry">
            <mxPoint x="510" y="90" as="sourcePoint" />
            <mxPoint x="670" y="90" as="targetPoint" />
          </mxGeometry>
        </mxCell>
        <mxCell id="E3nTgvue2_oqYDqIntTC-100" value="1:N" style="text;html=1;align=center;verticalAlign=middle;resizable=0;points=[];autosize=1;strokeColor=none;fillColor=none;" parent="1" vertex="1">
          <mxGeometry x="690" y="-110" width="40" height="30" as="geometry" />
        </mxCell>
        <mxCell id="E3nTgvue2_oqYDqIntTC-101" value="" style="endArrow=none;html=1;rounded=0;exitX=1;exitY=0.75;exitDx=0;exitDy=0;entryX=0.006;entryY=0.133;entryDx=0;entryDy=0;entryPerimeter=0;" parent="1" source="E3nTgvue2_oqYDqIntTC-87" target="E3nTgvue2_oqYDqIntTC-83" edge="1">
          <mxGeometry relative="1" as="geometry">
            <mxPoint x="670" y="-27" as="sourcePoint" />
            <mxPoint x="782" y="-104" as="targetPoint" />
          </mxGeometry>
        </mxCell>
        <mxCell id="E3nTgvue2_oqYDqIntTC-102" value="1:1" style="text;html=1;align=center;verticalAlign=middle;resizable=0;points=[];autosize=1;strokeColor=none;fillColor=none;" parent="1" vertex="1">
          <mxGeometry x="700" y="30" width="40" height="30" as="geometry" />
        </mxCell>
        <mxCell id="etYGjXr3Vahv3O9yMade-2" value="MASCOTAS" style="whiteSpace=wrap;html=1;align=center;" parent="1" vertex="1">
          <mxGeometry x="-287" y="870" width="100" height="40" as="geometry" />
        </mxCell>
        <mxCell id="etYGjXr3Vahv3O9yMade-3" value="EMPLEADOS" style="whiteSpace=wrap;html=1;align=center;" parent="1" vertex="1">
          <mxGeometry x="1050" y="870" width="100" height="40" as="geometry" />
        </mxCell>
        <mxCell id="etYGjXr3Vahv3O9yMade-4" value="COMPRA" style="whiteSpace=wrap;html=1;align=center;" parent="1" vertex="1">
          <mxGeometry x="603" y="870" width="100" height="40" as="geometry" />
        </mxCell>
        <mxCell id="etYGjXr3Vahv3O9yMade-5" value="PRODUCTOS" style="whiteSpace=wrap;html=1;align=center;" parent="1" vertex="1">
          <mxGeometry x="323" y="1110" width="100" height="40" as="geometry" />
        </mxCell>
        <mxCell id="etYGjXr3Vahv3O9yMade-6" value="CLIENTES" style="whiteSpace=wrap;html=1;align=center;" parent="1" vertex="1">
          <mxGeometry x="13" y="870" width="100" height="40" as="geometry" />
        </mxCell>
        <mxCell id="etYGjXr3Vahv3O9yMade-7" value="RAZA" style="ellipse;whiteSpace=wrap;html=1;align=center;" parent="1" vertex="1">
          <mxGeometry x="-297" y="950" width="100" height="40" as="geometry" />
        </mxCell>
        <mxCell id="etYGjXr3Vahv3O9yMade-8" value="SEXO" style="ellipse;whiteSpace=wrap;html=1;align=center;" parent="1" vertex="1">
          <mxGeometry x="-297" y="790" width="100" height="40" as="geometry" />
        </mxCell>
        <mxCell id="etYGjXr3Vahv3O9yMade-9" value="EDAD" style="ellipse;whiteSpace=wrap;html=1;align=center;" parent="1" vertex="1">
          <mxGeometry x="-407" y="810" width="100" height="40" as="geometry" />
        </mxCell>
        <mxCell id="etYGjXr3Vahv3O9yMade-10" value="PRECIO" style="ellipse;whiteSpace=wrap;html=1;align=center;" parent="1" vertex="1">
          <mxGeometry x="-407" y="930" width="100" height="40" as="geometry" />
        </mxCell>
        <mxCell id="etYGjXr3Vahv3O9yMade-11" value="&lt;u&gt;ID&lt;/u&gt;" style="ellipse;whiteSpace=wrap;html=1;align=center;" parent="1" vertex="1">
          <mxGeometry x="-430" y="870" width="100" height="40" as="geometry" />
        </mxCell>
        <mxCell id="etYGjXr3Vahv3O9yMade-12" value="&lt;u&gt;DNI&lt;/u&gt;" style="ellipse;whiteSpace=wrap;html=1;align=center;" parent="1" vertex="1">
          <mxGeometry x="-47" y="950" width="100" height="40" as="geometry" />
        </mxCell>
        <mxCell id="etYGjXr3Vahv3O9yMade-13" value="NOMBRE" style="ellipse;whiteSpace=wrap;html=1;align=center;" parent="1" vertex="1">
          <mxGeometry x="-47" y="790" width="100" height="40" as="geometry" />
        </mxCell>
        <mxCell id="etYGjXr3Vahv3O9yMade-14" value="DIRECCION" style="ellipse;whiteSpace=wrap;html=1;align=center;" parent="1" vertex="1">
          <mxGeometry x="83" y="790" width="100" height="40" as="geometry" />
        </mxCell>
        <mxCell id="etYGjXr3Vahv3O9yMade-15" value="TELEFONO" style="ellipse;whiteSpace=wrap;html=1;align=center;" parent="1" vertex="1">
          <mxGeometry x="83" y="950" width="100" height="40" as="geometry" />
        </mxCell>
        <mxCell id="etYGjXr3Vahv3O9yMade-16" value="&lt;u&gt;ID&lt;/u&gt;" style="ellipse;whiteSpace=wrap;html=1;align=center;" parent="1" vertex="1">
          <mxGeometry x="260" y="1190" width="100" height="40" as="geometry" />
        </mxCell>
        <mxCell id="etYGjXr3Vahv3O9yMade-17" value="CATEGORIA" style="ellipse;whiteSpace=wrap;html=1;align=center;" parent="1" vertex="1">
          <mxGeometry x="260" y="1030" width="100" height="40" as="geometry" />
        </mxCell>
        <mxCell id="etYGjXr3Vahv3O9yMade-18" value="PRECIO" style="ellipse;whiteSpace=wrap;html=1;align=center;" parent="1" vertex="1">
          <mxGeometry x="390" y="1190" width="100" height="40" as="geometry" />
        </mxCell>
        <mxCell id="etYGjXr3Vahv3O9yMade-19" value="STOCK" style="ellipse;whiteSpace=wrap;html=1;align=center;" parent="1" vertex="1">
          <mxGeometry x="390" y="1030" width="100" height="40" as="geometry" />
        </mxCell>
        <mxCell id="etYGjXr3Vahv3O9yMade-20" value="&lt;u&gt;ID&lt;/u&gt;" style="ellipse;whiteSpace=wrap;html=1;align=center;" parent="1" vertex="1">
          <mxGeometry x="540" y="950" width="100" height="40" as="geometry" />
        </mxCell>
        <mxCell id="etYGjXr3Vahv3O9yMade-21" value="FECHA_compra" style="ellipse;whiteSpace=wrap;html=1;align=center;" parent="1" vertex="1">
          <mxGeometry x="540" y="790" width="100" height="40" as="geometry" />
        </mxCell>
        <mxCell id="etYGjXr3Vahv3O9yMade-22" value="CANTIDAD" style="ellipse;whiteSpace=wrap;html=1;align=center;" parent="1" vertex="1">
          <mxGeometry x="650" y="950" width="100" height="40" as="geometry" />
        </mxCell>
        <mxCell id="etYGjXr3Vahv3O9yMade-23" value="PRECIO_TOTAL" style="ellipse;whiteSpace=wrap;html=1;align=center;" parent="1" vertex="1">
          <mxGeometry x="650" y="790" width="100" height="40" as="geometry" />
        </mxCell>
        <mxCell id="etYGjXr3Vahv3O9yMade-24" value="&lt;u&gt;ID&lt;/u&gt;" style="ellipse;whiteSpace=wrap;html=1;align=center;" parent="1" vertex="1">
          <mxGeometry x="980" y="950" width="100" height="40" as="geometry" />
        </mxCell>
        <mxCell id="etYGjXr3Vahv3O9yMade-25" value="NOMBRE" style="ellipse;whiteSpace=wrap;html=1;align=center;" parent="1" vertex="1">
          <mxGeometry x="1110" y="950" width="100" height="40" as="geometry" />
        </mxCell>
        <mxCell id="etYGjXr3Vahv3O9yMade-26" value="PUESTO" style="ellipse;whiteSpace=wrap;html=1;align=center;" parent="1" vertex="1">
          <mxGeometry x="980" y="800" width="100" height="40" as="geometry" />
        </mxCell>
        <mxCell id="etYGjXr3Vahv3O9yMade-27" value="FECHA_CONTR" style="ellipse;whiteSpace=wrap;html=1;align=center;" parent="1" vertex="1">
          <mxGeometry x="1110" y="800" width="100" height="40" as="geometry" />
        </mxCell>
        <mxCell id="etYGjXr3Vahv3O9yMade-31" value="GESTIONAN" style="shape=rhombus;perimeter=rhombusPerimeter;whiteSpace=wrap;html=1;align=center;" parent="1" vertex="1">
          <mxGeometry x="827" y="860" width="120" height="60" as="geometry" />
        </mxCell>
        <mxCell id="etYGjXr3Vahv3O9yMade-33" value="REALIZAN" style="shape=rhombus;perimeter=rhombusPerimeter;whiteSpace=wrap;html=1;align=center;" parent="1" vertex="1">
          <mxGeometry x="303" y="860" width="120" height="60" as="geometry" />
        </mxCell>
      </root>
    </mxGraphModel>
  </diagram>
</mxfile>
